<svg xmlns="http://www.w3.org/2000/svg" xmlns:xlink="http://www.w3.org/1999/xlink" width="16" height="16" preserveAspectRatio="xMidYMid meet" viewBox="0 0 16 16" style="-ms-transform: rotate(360deg); -webkit-transform: rotate(360deg); transform: rotate(360deg);"><g fill="black"><path fill-rule="evenodd" d="M4.646 9.646a.5.5 0 0 1 .708 0L8 12.293l2.646-2.647a.5.5 0 0 1 .708.708l-3 3a.5.5 0 0 1-.708 0l-3-3a.5.5 0 0 1 0-.708z"/><path fill-rule="evenodd" d="M8 2.5a.5.5 0 0 1 .5.5v9a.5.5 0 0 1-1 0V3a.5.5 0 0 1 .5-.5z"/></g><rect x="0" y="0" width="16" height="16" fill="rgba(0, 0, 0, 0)" /></svg>